<svg width="18" height="32" viewBox="0 0 18 32" fill="none" xmlns="http://www.w3.org/2000/svg">
<path d="M16.7661 0.359333H12.6822C11.6582 0.301445 10.6337 0.463869 9.67779 0.835647C8.72189 1.20743 7.85686 1.77991 7.14105 2.51447C6.42525 3.24902 5.87532 4.12857 5.52838 5.09376C5.18144 6.05895 5.04556 7.08732 5.12991 8.1095V11.6895H1.02399C0.853564 11.6895 0.690113 11.7572 0.569601 11.8777C0.449089 11.9982 0.381386 12.1617 0.381386 12.3321V17.5101C0.381386 17.6806 0.449089 17.844 0.569601 17.9645C0.690113 18.085 0.853564 18.1528 1.02399 18.1528H5.12991V31.2179C5.12991 31.3884 5.19761 31.5518 5.31812 31.6723C5.43863 31.7928 5.60208 31.8605 5.77251 31.8605H11.1298C11.3002 31.8605 11.4637 31.7928 11.5842 31.6723C11.7047 31.5518 11.7724 31.3884 11.7724 31.2179V18.146H16.5734C16.6578 18.146 16.7413 18.1294 16.8193 18.0971C16.8972 18.0648 16.9681 18.0174 17.0278 17.9578C17.0874 17.8981 17.1348 17.8273 17.1671 17.7493C17.1993 17.6713 17.216 17.5878 17.216 17.5034V12.3253C17.216 12.1549 17.1483 11.9915 17.0278 11.8709C16.9072 11.7504 16.7438 11.6827 16.5734 11.6827H11.7707V8.64557C11.7707 7.18956 12.1174 6.44718 14.0148 6.44718H16.7661C16.9366 6.44718 17.1 6.37948 17.2205 6.25896C17.3411 6.13845 17.4088 5.975 17.4088 5.80457V1.0087C17.4096 0.923748 17.3937 0.839458 17.3618 0.760711C17.3299 0.681964 17.2827 0.610323 17.2229 0.549933C17.1632 0.489543 17.092 0.441604 17.0136 0.408888C16.9352 0.376171 16.8511 0.359328 16.7661 0.359333Z" fill="#FCFDFE"/>
</svg>
