<svg width="32" height="26" viewBox="0 0 32 26" fill="none" xmlns="http://www.w3.org/2000/svg">
<path d="M31.6845 3.28771C30.5235 3.7955 29.2929 4.12603 28.0337 4.26823C29.3644 3.49275 30.3563 2.24672 30.8135 0.775947C29.5709 1.51633 28.2089 2.0345 26.7884 2.30719C26.2058 1.68747 25.5048 1.19098 24.7268 0.847108C23.9488 0.503238 23.1098 0.318985 22.2593 0.30527C21.4088 0.291555 20.5643 0.448657 19.7756 0.767263C18.987 1.08587 18.2703 1.5595 17.668 2.16011C17.0688 2.74151 16.5951 3.43949 16.2761 4.21101C15.9571 4.98252 15.7996 5.81122 15.8132 6.64598C15.8171 7.13461 15.8718 7.6215 15.9766 8.09878C13.4325 7.97835 10.9446 7.30939 8.68318 6.13774C6.45113 4.99925 4.48174 3.40671 2.90139 1.46231C2.3528 2.40412 2.05564 3.47119 2.03847 4.56099C2.0213 5.65079 2.28469 6.7267 2.80334 7.68533C3.29621 8.59471 4.00428 9.36956 4.86569 9.94216C3.85953 9.90681 2.87655 9.63052 1.99931 9.1365V9.21494C1.9791 10.6897 2.49144 12.1223 3.44231 13.2498C4.36282 14.3835 5.65187 15.1584 7.08493 15.4396C6.5403 15.5827 5.97954 15.6552 5.41642 15.6553C5.01525 15.6524 4.61486 15.6196 4.21855 15.5573C4.62596 16.8163 5.41622 17.9167 6.47907 18.7051C7.54192 19.4934 8.82434 19.9303 10.1474 19.9549C7.91286 21.7371 5.13196 22.6941 2.27386 22.6644C1.76294 22.6677 1.25225 22.6421 0.744247 22.5876C3.64079 24.4712 7.0274 25.4612 10.4824 25.4343C12.6422 25.4498 14.7881 25.0876 16.8231 24.3639C18.6718 23.7239 20.3884 22.7526 21.8891 21.4976C23.2876 20.3013 24.5067 18.9099 25.5089 17.3663C26.4995 15.86 27.2637 14.2165 27.7771 12.4882C28.2688 10.8359 28.5208 9.12161 28.5256 7.39771C28.5256 7.03165 28.5191 6.75928 28.506 6.58061C29.7481 5.67517 30.8235 4.561 31.6845 3.28771Z" fill="#FCFDFE"/>
</svg>
